<svg id="Capa_1" enable-background="new 0 0 512 512" height="512" viewBox="0 0 512 512" width="512" xmlns="http://www.w3.org/2000/svg" xmlns:xlink="http://www.w3.org/1999/xlink"><linearGradient id="SVGID_1_" gradientUnits="userSpaceOnUse" x1="17.591" x2="463.618" y1="494.409" y2="48.382"><stop offset="0" stop-color="#a93aff"/><stop offset="1" stop-color="#ff81ff"/></linearGradient><g><g><path d="m347 0c-90.981 0-165 74.019-165 165 0 40.102 14.409 76.882 38.282 105.507l-43.593 43.593-10.605-10.605c-5.83-5.83-15.293-5.859-21.182-.029l-8.364 8.335c-32.358 32.285-65.815 65.669-105.747 87.788-18.984 10.502-30.791 30.585-30.791 52.411 0 33.091 26.909 60 60 60 21.826 0 41.909-11.807 52.427-30.806 22.061-39.888 55.43-73.315 87.7-105.659l8.408-8.438c5.83-5.859 5.815-15.337-.029-21.182l-10.606-10.604 43.592-43.592c28.626 23.872 65.406 38.281 105.508 38.281 90.981 0 165-74.019 165-165s-74.019-165-165-165zm-260.823 466.663c-5.23 9.463-15.264 15.337-26.177 15.337-16.538 0-30-13.462-30-30 0-10.913 5.874-20.933 15.322-26.162 42.642-23.628 77.021-57.51 110.142-90.542l21.24 21.24c-33.047 33.135-66.943 67.515-90.527 110.127zm260.823-166.663c-74.443 0-135-60.557-135-135s60.557-135 135-135 135 60.557 135 135-60.557 135-135 135z" fill="url(#SVGID_1_)"/></g></g></svg>