<?xml version="1.0" encoding="iso-8859-1"?>
<!-- Generator: Adobe Illustrator 19.0.0, SVG Export Plug-In . SVG Version: 6.00 Build 0)  -->
<svg version="1.1" id="Capa_1" xmlns="http://www.w3.org/2000/svg" xmlns:xlink="http://www.w3.org/1999/xlink" x="0px" y="0px"
	 viewBox="0 0 323.5 323.5" style="enable-background:new 0 0 323.5 323.5;" xml:space="preserve">
<g>
	<g>
		<path d="M161.7,105.55c-28.7,0-51.9,23.2-51.9,51.9s23.2,51.9,51.9,51.9c28.7-0.1,51.9-23.3,51.9-51.9
			C213.7,128.75,190.5,105.55,161.7,105.55z"/>
	</g>
</g>
<g>
	<g>
		<path d="M242.6,23.75H80.8L0,161.75l80.8,138h161.9l80.8-138L242.6,23.75z M233.7,157.45c0,39.7-32.2,71.9-71.9,71.9
			c-39.7,0-71.9-32.2-71.9-71.9s32.2-71.9,71.9-71.9c39.7,0,71.7,32.2,71.9,71.8C233.7,157.45,233.7,157.45,233.7,157.45z"/>
	</g>
</g>
<g>
</g>
<g>
</g>
<g>
</g>
<g>
</g>
<g>
</g>
<g>
</g>
<g>
</g>
<g>
</g>
<g>
</g>
<g>
</g>
<g>
</g>
<g>
</g>
<g>
</g>
<g>
</g>
<g>
</g>
</svg>
